Coordinates
version=1
nRows=65
nColumns=12
inDegrees=yes

Units are S.I. units (second, meters, Newtons, ...)
Angles are in degrees

endheader
time	SC_y	SC_z	SC_x	AC_y	AC_z	AC_x	GH_y	GH_z	GH_yy	EL_x	PS_y
       0.0              -59.62          14.26          45.26           64.1          8.118       -0.06658         -118.2          67.51         -9.615          11.93          30.98
   0.04832              -59.61          14.26          45.25           64.1          8.115       -0.06872         -118.2           67.5         -9.596          11.94          30.98
   0.09665              -59.61          14.26          45.25          64.09          8.112         -0.071         -118.2          67.49         -9.575          11.94          30.99
     0.145               -59.6          14.26          45.24          64.09          8.108       -0.07342         -118.2          67.48         -9.554          11.95          30.99
    0.1933               -59.6          14.26          45.23          64.08          8.105         -0.076         -118.2          67.47         -9.531          11.95          30.99
    0.2416              -59.59          14.26          45.23          64.08          8.101       -0.07876         -118.2          67.45         -9.506          11.96          30.99
    0.2899              -59.58          14.26          45.22          64.07          8.097       -0.08169         -118.2          67.44          -9.48          11.96          30.99
    0.3383              -59.58          14.26          45.21          64.07          8.092       -0.08483         -118.2          67.42         -9.452          11.97           31.0
    0.3866              -59.57          14.26           45.2          64.06          8.088        -0.0882         -118.2          67.41         -9.422          11.97           31.0
    0.4349              -59.56          14.26          45.19          64.05          8.083       -0.09181         -118.2          67.39          -9.39          11.98           31.0
    0.4832              -59.56          14.26          45.19          64.05          8.077       -0.09568         -118.2          67.37         -9.355          11.99          31.01
    0.5316              -59.55          14.26          45.18          64.04          8.071       -0.09985         -118.2          67.35         -9.318          11.99          31.01
    0.5799              -59.54          14.26          45.16          64.03          8.065        -0.1043         -118.2          67.33         -9.278           12.0          31.01
    0.6282              -59.53          14.26          45.15          64.02          8.058        -0.1092         -118.2           67.3         -9.235          12.01          31.02
    0.6765              -59.52          14.26          45.14          64.01          8.051        -0.1145         -118.2          67.27         -9.188          12.02          31.02
    0.7248               -59.5          14.26          45.13           64.0          8.043        -0.1202         -118.2          67.25         -9.137          12.03          31.03
    0.7732              -59.49          14.26          45.11          63.99          8.034        -0.1264         -118.2          67.22         -9.082          12.04          31.03
    0.8215              -59.48          14.26          45.09          63.98          8.025        -0.1331         -118.2          67.18         -9.021          12.05          31.04
    0.8698              -59.46          14.26          45.08          63.96          8.015        -0.1405         -118.2          67.14         -8.956          12.06          31.04
    0.9181              -59.45          14.27          45.06          63.95          8.003        -0.1485         -118.2           67.1         -8.884          12.08          31.05
    0.9665              -59.43          14.27          45.03          63.93          7.991        -0.1574         -118.2          67.06         -8.805          12.09          31.05
     1.015              -59.41          14.27          45.01          63.91          7.977        -0.1671         -118.2          67.01         -8.718          12.11          31.06
     1.063              -59.38          14.27          44.98          63.89          7.962        -0.1779         -118.2          66.96         -8.622          12.13          31.07
     1.111              -59.36          14.27          44.95          63.87          7.946        -0.1898         -118.2           66.9         -8.515          12.15          31.08
      1.16              -59.33          14.27          44.92          63.85          7.927        -0.2031         -118.3          66.83         -8.397          12.17          31.09
     1.208               -59.3          14.27          44.88          63.82          7.907        -0.2179         -118.3          66.76         -8.265           12.2           31.1
     1.256              -59.27          14.27          44.84          63.79          7.883        -0.2345         -118.3          66.67         -8.117          12.23          31.11
     1.305              -59.23          14.27           44.8          63.75          7.857        -0.2531         -118.3          66.58         -7.951          12.26          31.13
     1.353              -59.18          14.28          44.75          63.71          7.828        -0.2742         -118.3          66.47         -7.763           12.3          31.15
     1.401              -59.13          14.28          44.69          63.67          7.795        -0.2981         -118.3          66.35         -7.549          12.34          31.16
      1.45              -59.08          14.28          44.62          63.62          7.756        -0.3255         -118.3          66.22         -7.305          12.39          31.19
     1.498              -59.01          14.28          44.54          63.56          7.713        -0.3568         -118.4          66.06         -7.026          12.44          31.21
     1.546              -58.94          14.29          44.45          63.49          7.662         -0.393         -118.4          65.88         -6.703          12.51          31.24
     1.595              -58.85          14.29          44.35          63.42          7.603         -0.435         -118.4          65.67         -6.328          12.58          31.27
     1.643              -58.75          14.29          44.23          63.33          7.535        -0.4842         -118.4          65.42         -5.889          12.67          31.31
     1.691              -58.63           14.3          44.09          63.22          7.454        -0.5422         -118.5          65.13         -5.372          12.77          31.36
      1.74              -58.48           14.3          43.92          63.09          7.358        -0.6112         -118.5          64.78         -4.757          12.89          31.41
     1.788              -58.31          14.31          43.71          62.94          7.242        -0.6938         -118.6          64.37          -4.02          13.03          31.48
     1.836               -58.1          14.32          43.47          62.75          7.103        -0.7937         -118.6          63.87         -3.128          13.21          31.55
     1.885              -57.85          14.33          43.17          62.53          6.932        -0.9158         -118.7          63.26         -2.039          13.42          31.65
     1.933              -57.54          14.34           42.8          62.25          6.722         -1.067         -118.8           62.5        -0.6951          13.69          31.77
     1.981              -57.15          14.35          42.33           61.9          6.459         -1.254         -118.9          61.56         0.9812          14.02          31.92
      2.03              -56.66          14.37          41.75          61.46          6.129         -1.491         -119.1          60.37          3.093          14.43           32.1
     2.078              -56.03           14.4          41.01           60.9          5.709         -1.792         -119.3          58.86          5.777          14.96          32.34
     2.126              -55.23          14.43          40.06          60.19          5.171         -2.177         -119.5          56.93          9.213          15.63          32.64
     2.175               -54.2          14.47          38.85          59.27          4.481         -2.672         -119.9          54.46          13.62           16.5          33.03
     2.223              -52.89          14.52          37.29          58.11          3.599         -3.303         -120.3          51.29          19.25          17.61          33.53
     2.271              -51.24          14.58          35.34          56.63          2.491         -4.097         -120.8          47.31          26.34           19.0          34.15
     2.319              -49.23          14.66          32.96          54.84           1.14         -5.064         -121.4          42.46          34.97          20.69          34.91
     2.368               -46.9          14.75           30.2          52.77         -0.426         -6.186         -122.2          36.84          44.97          22.66          35.79
     2.416              -44.38          14.85          27.21          50.52         -2.121           -7.4         -122.9          30.75           55.8          24.79          36.75
     2.464              -41.86          14.95          24.23          48.27         -3.817         -8.614         -123.7          24.67          66.63          26.92           37.7
     2.513              -39.53          15.04          21.47          46.19         -5.383         -9.736         -124.5          19.04          76.63          28.88          38.58
     2.561              -37.52          15.12          19.09           44.4         -6.733          -10.7         -125.1          14.19          85.26          30.58          39.34
     2.609              -35.87          15.18          17.13          42.93         -7.842          -11.5         -125.6          10.21          92.35          31.97          39.97
     2.658              -34.56          15.23          15.58          41.76         -8.723         -12.13         -126.0          7.049          97.98          33.07          40.46
     2.706              -33.53          15.27          14.37          40.85         -9.414         -12.62         -126.3          4.571          102.4          33.94          40.85
     2.754              -32.73           15.3          13.42          40.13         -9.951         -13.01         -126.6           2.64          105.8          34.62          41.15
     2.803              -32.11          15.33          12.68          39.57         -10.37         -13.31         -126.8          1.132          108.5          35.14          41.39
     2.851              -31.61          15.34           12.1          39.14          -10.7         -13.55         -126.9       -0.05502          110.6          35.56          41.58
     2.899              -31.22          15.36          11.63          38.79         -10.96         -13.73         -127.1        -0.9971          112.3          35.89          41.73
     2.948              -30.91          15.37          11.26          38.51         -11.17         -13.88         -127.2         -1.752          113.6          36.15          41.84
     2.996              -30.66          15.38          10.96          38.28         -11.35         -14.01         -127.2         -2.365          114.7          36.37          41.94
     3.044              -30.45          15.39          10.72           38.1         -11.48         -14.11         -127.3         -2.866          115.6          36.54          42.02
     3.093              -30.28           15.4          10.51          37.94          -11.6         -14.19         -127.4          -3.28          116.4          36.69          42.08
